<?xml version="1.0" standalone="no"?>
<!DOCTYPE svg PUBLIC "-//W3C//DTD SVG 20010904//EN"
 "http://www.w3.org/TR/2001/REC-SVG-20010904/DTD/svg10.dtd">
<svg version="1.0" xmlns="http://www.w3.org/2000/svg"
 width="2000.000000pt" height="2000.000000pt" viewBox="0 0 2000.000000 2000.000000"
 preserveAspectRatio="xMidYMid meet">
<metadata>
Created by potrace 1.14, written by Peter Selinger 2001-2017
</metadata>
<g transform="translate(0.000000,2000.000000) scale(0.100000,-0.100000)"
fill="#000000" stroke="none">
<path d="M0 10000 l0 -2850 3025 0 3025 0 0 2850 0 2850 -3025 0 -3025 0 0
-2850z m3125 2036 c22 -4 51 -9 65 -10 66 -10 109 -18 150 -30 25 -8 47 -14
50 -14 19 -2 67 -16 75 -23 6 -4 15 -8 20 -8 54 -5 293 -124 352 -176 6 -5 25
-20 41 -33 46 -35 172 -164 172 -176 0 -3 17 -31 38 -63 66 -100 113 -221 139
-353 19 -101 18 -294 -2 -380 -3 -14 -8 -35 -11 -48 -17 -83 -75 -207 -137
-291 -37 -52 -136 -155 -184 -192 -40 -32 -145 -99 -154 -99 -5 0 -9 -4 -9 -8
0 -4 29 -16 65 -25 35 -10 77 -23 92 -29 16 -6 30 -12 33 -13 3 0 31 -13 63
-28 32 -15 59 -27 62 -27 2 0 46 -28 97 -61 96 -64 310 -269 281 -269 -4 0 -3
-4 2 -8 21 -15 91 -141 116 -207 4 -11 14 -38 22 -61 59 -158 64 -382 13 -603
-20 -88 -96 -258 -140 -313 -11 -14 -32 -41 -46 -59 -40 -53 -130 -138 -195
-184 -63 -45 -201 -126 -219 -129 -6 -1 -31 -11 -56 -23 -25 -12 -81 -33 -125
-47 -126 -39 -118 -37 -245 -61 -41 -8 -91 -17 -110 -21 -19 -4 -443 -9 -942
-11 l-908 -4 0 2049 0 2049 748 -2 c411 -1 765 -5 787 -9z"/>
<path d="M2325 11401 c-9 -16 -12 -92 -3 -97 4 -3 4 -12 1 -22 -6 -14 -6 -32
-2 -97 0 -5 0 -51 -2 -101 -1 -50 0 -95 4 -100 3 -6 3 -15 -1 -21 -4 -7 -6
-29 -4 -50 1 -21 2 -60 1 -88 -4 -168 -3 -247 4 -252 4 -2 5 -9 1 -14 -3 -6
-7 -55 -8 -110 l-1 -100 285 1 c195 1 305 6 350 15 87 18 98 20 150 40 25 9
50 17 55 18 28 7 136 77 178 116 61 57 97 111 125 186 28 77 32 104 33 195 1
125 -48 241 -136 325 -41 39 -54 48 -119 84 -25 14 -88 40 -116 46 -3 1 -16 5
-30 8 -14 4 -38 10 -55 14 -54 12 -702 16 -710 4z"/>
<path d="M2324 9693 c-2 -7 -6 -20 -9 -28 -2 -8 0 -15 5 -15 5 0 7 -6 4 -13
-7 -19 -10 -297 -3 -297 3 0 3 -22 -1 -50 -4 -27 -2 -50 2 -50 5 0 7 -4 3 -9
-5 -9 -9 -95 -5 -116 1 -5 1 -30 0 -54 -5 -130 -4 -201 3 -201 5 0 6 -4 2 -9
-4 -8 -9 -212 -6 -257 1 -11 894 -12 956 -1 217 39 355 104 462 217 41 43 98
158 111 225 11 50 10 203 -1 240 -4 11 -13 38 -22 60 -9 22 -18 48 -22 58 -3
9 -9 17 -14 17 -5 0 -9 6 -9 13 0 20 -94 114 -154 152 -54 34 -134 73 -166 80
-8 2 -44 10 -80 19 -110 25 -171 28 -619 30 -339 1 -434 -2 -437 -11z"/>
<path d="M6979 12848 c-5 -9 -3 -5682 2 -5689 3 -5 1222 -8 3025 -7 l3019 3 1
2835 c0 1559 -2 2841 -4 2848 -3 9 -617 12 -3023 12 -1660 0 -3020 -1 -3020
-2z m3126 -814 c60 -8 116 -16 125 -19 8 -2 27 -7 43 -10 61 -12 76 -16 164
-44 123 -39 242 -96 339 -161 88 -60 213 -181 258 -250 16 -25 37 -56 46 -70
23 -34 70 -137 70 -153 0 -7 4 -17 9 -22 8 -10 26 -73 36 -125 30 -152 28
-338 -4 -447 -5 -18 -8 -33 -5 -33 2 0 -2 -13 -11 -30 -9 -16 -13 -30 -10 -30
4 0 0 -12 -8 -27 -8 -16 -27 -53 -42 -83 -31 -61 -110 -166 -164 -220 -49 -48
-155 -126 -202 -150 -21 -11 -39 -25 -39 -30 0 -6 3 -9 8 -8 4 0 14 -1 22 -5
8 -3 40 -13 70 -22 93 -29 290 -122 290 -137 0 -5 6 -8 13 -8 15 0 126 -87
177 -139 157 -161 249 -345 289 -580 8 -52 6 -259 -3 -311 -3 -14 -8 -38 -11
-55 -3 -16 -8 -41 -12 -55 -4 -14 -8 -32 -9 -40 -1 -8 -14 -46 -30 -85 -79
-198 -208 -352 -394 -474 -103 -67 -301 -159 -379 -176 -9 -2 -52 -13 -96 -25
-73 -19 -129 -29 -255 -48 -25 -4 -445 -7 -935 -7 l-889 0 -1 2040 c-1 1122 0
2043 2 2046 1 3 323 6 715 6 556 1 737 -2 823 -13z"/>
<path d="M9299 11408 c-1 -2 -2 -241 -3 -531 l-1 -529 305 5 c168 2 319 7 335
11 17 4 48 12 70 18 22 6 45 13 50 14 29 8 81 30 86 37 3 5 9 8 13 8 20 -3
109 55 162 106 69 67 116 150 138 244 16 66 14 203 -2 256 -31 97 -104 196
-187 252 -43 29 -150 74 -200 85 -16 3 -41 9 -55 13 -25 6 -709 17 -711 11z"/>
<path d="M9312 9699 c-16 -6 -17 -49 -17 -560 l0 -554 435 1 c463 1 538 3 546
16 3 5 9 6 14 3 16 -10 165 36 249 77 184 91 288 251 295 457 5 120 -45 263
-115 333 -10 10 -21 24 -26 32 -15 25 -137 103 -203 129 -82 32 -173 53 -270
63 -94 8 -885 11 -908 3z"/>
<path d="M13950 10000 l0 -2850 3025 0 3025 0 0 2850 0 2850 -3025 0 -3025 0
0 -2850z m3615 2086 c113 -10 264 -37 410 -73 55 -13 110 -26 122 -29 12 -2
35 -9 50 -15 16 -6 29 -10 30 -10 13 2 361 -115 468 -157 l120 -48 0 -376 1
-376 -25 10 c-14 5 -31 14 -37 19 -15 12 -246 128 -256 129 -4 0 -35 13 -70
29 -99 46 -316 124 -329 118 -3 -1 -12 3 -20 9 -8 6 -27 15 -44 19 -16 5 -34
9 -40 11 -47 13 -251 61 -292 68 -111 20 -154 26 -223 33 -76 8 -369 8 -420 0
-34 -5 -92 -15 -138 -22 -12 -2 -30 -6 -40 -9 -9 -3 -28 -8 -42 -10 -181 -37
-462 -156 -557 -236 -7 -5 -15 -10 -19 -10 -24 0 -229 -188 -282 -259 -15 -20
-29 -38 -33 -41 -33 -29 -140 -228 -178 -330 -24 -65 -67 -227 -77 -290 -4
-25 -9 -54 -11 -65 -8 -47 -11 -326 -3 -361 5 -22 11 -55 14 -74 6 -37 9 -52
26 -115 6 -22 12 -47 14 -55 22 -91 110 -273 189 -390 63 -94 171 -212 244
-267 21 -15 40 -30 43 -34 20 -23 246 -156 280 -164 3 -1 16 -6 30 -12 82 -36
238 -85 310 -98 66 -12 75 -13 78 -15 7 -6 158 -26 267 -35 66 -5 272 -6 310
-1 17 2 55 7 85 10 30 4 89 13 130 21 99 19 105 20 180 40 36 9 70 18 75 19
25 6 182 58 226 76 122 50 147 60 199 83 30 14 57 24 60 23 3 0 19 9 36 21 17
12 33 20 36 17 3 -2 11 2 18 11 7 8 17 15 23 15 12 0 236 127 259 147 42 37
43 25 41 -373 -1 -209 -2 -382 -2 -385 -1 -6 -129 -73 -141 -74 -3 -1 -14 -6
-25 -12 -37 -21 -215 -92 -215 -86 0 3 -6 1 -12 -4 -17 -13 -228 -82 -303 -99
-5 -1 -37 -9 -70 -17 -62 -16 -211 -46 -255 -52 -72 -9 -127 -17 -140 -20 -73
-19 -500 -26 -670 -10 -52 4 -105 9 -117 9 -13 1 -23 3 -23 6 0 3 -10 5 -22 6
-39 1 -87 9 -268 48 -14 3 -41 10 -60 15 -19 5 -51 14 -70 20 -140 38 -327
108 -425 159 -67 35 -257 153 -281 176 -7 6 -27 22 -45 36 -86 65 -278 251
-329 319 -14 19 -32 42 -40 51 -8 10 -22 28 -30 40 -8 12 -21 28 -27 36 -7 7
-13 17 -13 22 0 5 -6 15 -14 21 -8 7 -21 26 -30 44 -9 18 -27 50 -41 72 -20
33 -64 117 -70 135 -1 3 -13 30 -27 60 -46 100 -108 297 -124 390 -2 14 -10
59 -18 100 -39 206 -43 437 -11 610 3 19 8 49 11 65 5 36 12 70 14 70 2 0 7
18 14 55 20 92 82 268 136 385 38 81 125 239 143 257 7 7 18 25 25 39 8 15 24
37 35 50 12 13 34 40 49 60 108 145 274 295 476 432 84 57 362 203 362 191 0
-3 6 -2 13 4 17 14 130 56 260 98 110 34 262 69 352 79 28 3 61 8 75 11 14 2
66 7 115 10 50 3 91 7 93 8 4 4 450 -3 507 -8z"/>
</g>
</svg>
