<?xml version="1.0" encoding="UTF-8"?>
<svg xmlns="http://www.w3.org/2000/svg" viewBox="0 0 10.41 12">
  <defs>
    <style>
      .cls-1 {
        fill: #dc2878;
      }

      .cls-2 {
        fill: #af0d5b;
      }

      .cls-3 {
        fill: #ff4c98;
      }
    </style>
  </defs>
  <g id="Layer_1" data-name="Layer 1" focusable="false">
    <g>
      <path class="cls-1" d="M2.47,9.61H.07s-.04,0-.05-.02c-.01-.01-.02-.03-.02-.05V2.46s0-.04,.02-.05c.01-.01,.03-.02,.05-.02H2.47s.04,0,.05,.02,.02,.03,.02,.05v7.07s0,.04-.02,.05c-.01,.01-.03,.02-.05,.02Z"/>
      <g>
        <path class="cls-3" d="M9.2,5.72l1.2-2.08s.01-.04,0-.05c0-.02-.02-.03-.03-.04L4.25,0s-.04-.01-.05,0-.03,.02-.04,.03l-1.2,2.08s-.01,.04,0,.05c0,.02,.02,.03,.03,.04l6.12,3.54s.04,.01,.05,0c.02,0,.04-.01,.05-.03Z"/>
        <path class="cls-2" d="M9.2,6.27l1.2,2.08s.01,.04,0,.05c0,.02-.02,.03-.03,.04l-6.12,3.54s-.04,.01-.05,0c-.02,0-.03-.02-.04-.03l-1.2-2.08s-.01-.04,0-.05c0-.02,.02-.03,.03-.04l6.12-3.54s.04-.01,.05,0c.02,0,.03,.01,.04,.03Z"/>
      </g>
    </g>
  </g>
</svg>