<?xml version="1.0" encoding="utf-8"?>
<!-- Generator: Adobe Illustrator 27.0.1, SVG Export Plug-In . SVG Version: 6.00 Build 0)  -->
<svg version="1.1" id="Layer_1" focusable="false" xmlns="http://www.w3.org/2000/svg" xmlns:xlink="http://www.w3.org/1999/xlink"
	 x="0px" y="0px" viewBox="0 0 12 12" style="enable-background:new 0 0 12 12;" xml:space="preserve">
<style type="text/css">
	.st0{fill:#B80000;}
	.st1{fill:#EB0000;}
	.st2{fill:#D30000;}
</style>
<g>
	<path class="st0" d="M7.6,12H5.2c0,0,0,0,0,0c0,0,0,0,0,0V7.8c0,0,0,0,0,0c0,0,0,0,0,0h2.4c0,0,0,0,0,0s0,0,0,0L7.6,12
		C7.7,11.9,7.7,12,7.6,12C7.7,12,7.7,12,7.6,12z"/>
	<path class="st1" d="M11.9,6.9H5.2c0,0,0,0,0,0s0,0,0,0V0.1c0,0,0,0,0-0.1s0,0,0,0h6.7c0,0,0,0,0.1,0s0,0,0,0.1L11.9,6.9
		C12,6.8,12,6.8,11.9,6.9C12,6.8,12,6.9,11.9,6.9z"/>
	<path class="st2" d="M4.2,8.6H0.1c0,0,0,0-0.1,0s0,0,0,0V4.4c0,0,0,0,0,0c0,0,0,0,0.1,0h4.1c0,0,0,0,0.1,0c0,0,0,0,0,0L4.2,8.6
		C4.3,8.5,4.3,8.5,4.2,8.6C4.2,8.6,4.2,8.6,4.2,8.6z"/>
</g>
</svg>
