<?xml version="1.0" encoding="UTF-8"?>
<svg xmlns="http://www.w3.org/2000/svg" viewBox="0 0 12 11.59">
  <defs>
    <style>
      .cls-1 {
        fill: #d24712;
      }

      .cls-2 {
        fill: #a13104;
      }

      .cls-3 {
        fill: #fa6400;
      }
    </style>
  </defs>
  <g id="Layer_1" data-name="Layer 1" focusable="false">
    <g>
      <path class="cls-2" d="M1.59,7.45H.07s-.04,0-.05-.02-.02-.03-.02-.05v-3.17s0-.04,.02-.05c.01-.01,.03-.02,.05-.02H1.59s.04,0,.05,.02,.02,.03,.02,.05v3.17s0,.04-.02,.05-.03,.02-.05,.02Z"/>
      <path class="cls-1" d="M5.31,9.93H2.55s-.04,0-.05-.02-.02-.03-.02-.05V1.72s0-.04,.02-.05,.03-.02,.05-.02h2.76s.04,0,.05,.02,.02,.03,.02,.05V9.86s0,.04-.02,.05-.03,.02-.05,.02Z"/>
      <path class="cls-3" d="M11.93,11.59H6.28s-.04,0-.05-.02-.02-.03-.02-.05V.07s0-.04,.02-.05,.03-.02,.05-.02h5.66s.04,0,.05,.02c.01,.01,.02,.03,.02,.05V11.52s0,.04-.02,.05-.03,.02-.05,.02Z"/>
    </g>
  </g>
</svg>