<?xml version="1.0" encoding="UTF-8"?>
<svg xmlns="http://www.w3.org/2000/svg" viewBox="0 0 12 12">
  <defs>
    <style>
      .cls-1 {
        fill: #ffa100;
      }

      .cls-2 {
        fill: #ffba00;
      }

      .cls-3 {
        fill: #ffd230;
      }
    </style>
  </defs>
  <g id="Layer_1" data-name="Layer 1" focusable="false">
    <g>
      <path class="cls-3" d="M.07,3.43H11.93s.04,0,.05-.02,.02-.03,.02-.05V.07s0-.04-.02-.05-.03-.02-.05-.02H.07S.03,0,.02,.02c-.01,.01-.02,.03-.02,.05V3.36s0,.04,.02,.05c.01,.01,.03,.02,.05,.02Z"/>
      <path class="cls-1" d="M7.79,12h4.14s.04,0,.05-.02,.02-.03,.02-.05v-3.29s0-.04-.02-.05-.03-.02-.05-.02H7.79s-.04,0-.05,.02-.02,.03-.02,.05v3.29s0,.04,.02,.05,.03,.02,.05,.02Z"/>
      <path class="cls-2" d="M4.36,7.71h7.57s.04,0,.05-.02,.02-.03,.02-.05v-3.29s0-.04-.02-.05-.03-.02-.05-.02H4.36s-.04,0-.05,.02-.02,.03-.02,.05v3.29s0,.04,.02,.05,.03,.02,.05,.02Z"/>
    </g>
  </g>
</svg>