<?xml version="1.0" encoding="UTF-8"?>
<svg xmlns="http://www.w3.org/2000/svg" viewBox="0 0 12 12">
  <defs>
    <style>
      .cls-1 {
        fill: #067eb3;
      }

      .cls-2 {
        fill: #149edc;
      }

      .cls-3 {
        fill: #1969a6;
      }
    </style>
  </defs>
  <g id="Layer_1" data-name="Layer 1" focusable="false">
    <g>
      <path class="cls-1" d="M8.15,10.02l1.87-1.87s.02-.03,.02-.05,0-.04-.02-.05L5.88,3.91s-.03-.02-.05-.02-.04,0-.05,.02l-1.87,1.87s-.02,.03-.02,.05,0,.04,.02,.05l4.14,4.14s.03,.02,.05,.02,.04,0,.05-.02Z"/>
      <path class="cls-3" d="M.07,12H2.71s.04,0,.05-.02,.02-.03,.02-.05V6.07s0-.04-.02-.05-.03-.02-.05-.02H.07s-.04,0-.05,.02-.02,.03-.02,.05v5.86s0,.04,.02,.05c.01,.01,.03,.02,.05,.02Z"/>
      <path class="cls-2" d="M6.07,2.79h5.86s.04,0,.05-.02,.02-.03,.02-.05V.07s0-.04-.02-.05-.03-.02-.05-.02H6.07s-.04,0-.05,.02c-.01,.01-.02,.03-.02,.05V2.71s0,.04,.02,.05,.03,.02,.05,.02Z"/>
    </g>
  </g>
</svg>